<?xml version="1.0" encoding="UTF-8" standalone="no"?>
<!-- Created with Inkscape (http://www.inkscape.org/) -->

<svg
   xmlns:dc="http://purl.org/dc/elements/1.1/"
   xmlns:cc="http://creativecommons.org/ns#"
   xmlns:rdf="http://www.w3.org/1999/02/22-rdf-syntax-ns#"
   xmlns:svg="http://www.w3.org/2000/svg"
   xmlns="http://www.w3.org/2000/svg"
   xmlns:xlink="http://www.w3.org/1999/xlink"
   xmlns:sodipodi="http://sodipodi.sourceforge.net/DTD/sodipodi-0.dtd"
   xmlns:inkscape="http://www.inkscape.org/namespaces/inkscape"
   width="210mm"
   height="297mm"
   viewBox="0 0 210 297"
   id="svg2"
   version="1.1"
   inkscape:version="0.91+devel r"
   sodipodi:docname="grilloTut.svg">
  <defs
     id="defs4" />
  <sodipodi:namedview
     id="base"
     pagecolor="#ffffff"
     bordercolor="#666666"
     borderopacity="1.0"
     inkscape:pageopacity="0.0"
     inkscape:pageshadow="2"
     inkscape:zoom="0.87838103"
     inkscape:cx="318.04093"
     inkscape:cy="580.92849"
     inkscape:document-units="mm"
     inkscape:current-layer="layer4"
     showgrid="false"
     inkscape:window-width="1024"
     inkscape:window-height="719"
     inkscape:window-x="340"
     inkscape:window-y="283"
     inkscape:window-maximized="0"
     showguides="true"
     inkscape:guide-bbox="true"
     inkscape:object-paths="true"
     inkscape:snap-intersection-paths="true"
     inkscape:object-nodes="true"
     inkscape:snap-smooth-nodes="true"
     inkscape:snap-midpoints="true"
     guidetolerance="10"
     inkscape:snap-center="true">
    <sodipodi:guide
       position="109.75484,127.61421"
       orientation="1,0"
       id="guide3700" />
    <sodipodi:guide
       position="115.09375,201.83929"
       orientation="0,1"
       id="guide3702" />
    <sodipodi:guide
       position="111.59747,172.78237"
       orientation="0,1"
       id="guide3704" />
    <sodipodi:guide
       position="113.81808,120.05469"
       orientation="0,1"
       id="guide3706" />
    <sodipodi:guide
       position="118.53403,195.6413"
       orientation="0,1"
       id="guide3708" />
    <sodipodi:guide
       position="136.57473,142.45466"
       orientation="0,1"
       id="guide3710" />
    <sodipodi:guide
       position="127.08666,126.01759"
       orientation="1,0"
       id="guide3712" />
    <sodipodi:guide
       position="130.96207,141.11831"
       orientation="1,0"
       id="guide3714" />
    <sodipodi:guide
       position="125.20461,195.64131"
       orientation="0.98582546,0.16777415"
       id="guide3801" />
    <sodipodi:guide
       position="126.31445,120.91992"
       orientation="1,0"
       id="guide3892" />
    <sodipodi:guide
       position="107.76039,186.37805"
       orientation="0,1"
       id="guide3981" />
  </sodipodi:namedview>
  <metadata
     id="metadata7">
    <rdf:RDF>
      <cc:Work
         rdf:about="">
        <dc:format>image/svg+xml</dc:format>
        <dc:type
           rdf:resource="http://purl.org/dc/dcmitype/StillImage" />
        <dc:title></dc:title>
      </cc:Work>
    </rdf:RDF>
  </metadata>
  <g
     inkscape:label="img"
     inkscape:groupmode="layer"
     id="layer1"
     sodipodi:insensitive="true">
    <image
       sodipodi:absref="/home/mf/Documents/grillo-phone/img/grilloDra-keyboard.png"
       xlink:href="img/grilloDra-keyboard.png"
       width="47.413334"
       height="100.47112"
       preserveAspectRatio="none"
       id="image3671"
       x="85.906425"
       y="91.794205" />
  </g>
  <g
     inkscape:groupmode="layer"
     id="layer4"
     inkscape:label="cornetta">
    <path
       style="color:#000000;clip-rule:nonzero;display:inline;overflow:visible;visibility:visible;opacity:0.5;isolation:auto;mix-blend-mode:normal;color-interpolation:sRGB;color-interpolation-filters:linearRGB;solid-color:#000000;solid-opacity:1;fill:#ff0000;fill-opacity:1;fill-rule:nonzero;stroke:none;stroke-width:0.37795275;stroke-linecap:butt;stroke-linejoin:miter;stroke-miterlimit:10;stroke-dasharray:none;stroke-dashoffset:0;stroke-opacity:1;marker:none;color-rendering:auto;image-rendering:auto;shape-rendering:auto;text-rendering:auto;enable-background:accumulate"
       d="M 414.82227 469.48438 C 402.68953 469.48438 389.46424 469.83042 376.44922 470.34961 C 364.135 470.8408 352.17198 471.49593 341.3418 472.15039 C 340.31392 478.70061 334.66992 517.34743 334.66992 584.10742 C 334.66992 621.13795 349.31641 637.37409 349.31641 668.76953 L 414.82227 668.76953 L 480.32812 668.76953 C 480.32812 637.37409 494.97461 621.13795 494.97461 584.10742 C 494.97461 517.34743 489.3306 478.70061 488.30273 472.15039 C 477.47254 471.49593 465.50953 470.84081 453.19531 470.34961 C 440.18028 469.83045 426.95501 469.48437 414.82227 469.48438 z "
       transform="scale(0.26458333)"
       id="path3954" />
    <path
       style="color:#000000;clip-rule:nonzero;display:inline;overflow:visible;visibility:visible;opacity:0.5;isolation:auto;mix-blend-mode:normal;color-interpolation:sRGB;color-interpolation-filters:linearRGB;solid-color:#000000;solid-opacity:1;fill:#00ff00;fill-opacity:1;fill-rule:nonzero;stroke:none;stroke-width:0.37795275;stroke-linecap:butt;stroke-linejoin:miter;stroke-miterlimit:10;stroke-dasharray:none;stroke-dashoffset:0;stroke-opacity:1;marker:none;color-rendering:auto;image-rendering:auto;shape-rendering:auto;text-rendering:auto;enable-background:accumulate"
       d="M 414.82227 359.66211 C 380.60926 359.66211 358.51115 370.85745 356.42969 383.08789 L 341.72656 469.48438 C 341.72656 469.48437 341.44029 471.52269 341.3418 472.15039 C 352.17198 471.49593 364.135 470.8408 376.44922 470.34961 C 389.46424 469.83057 402.68953 469.48438 414.82227 469.48438 C 426.95501 469.48438 440.18028 469.83045 453.19531 470.34961 C 465.50953 470.84081 477.47254 471.49593 488.30273 472.15039 C 488.20423 471.52266 487.91797 469.48437 487.91797 469.48438 L 473.21484 383.08789 C 471.13338 370.85745 449.03527 359.66211 414.82227 359.66211 z "
       transform="scale(0.26458333)"
       id="path3818" />
    <path
       style="color:#000000;clip-rule:nonzero;display:inline;overflow:visible;visibility:visible;opacity:0.5;isolation:auto;mix-blend-mode:normal;color-interpolation:sRGB;color-interpolation-filters:linearRGB;solid-color:#000000;solid-opacity:1;fill:#ffff00;fill-opacity:1;fill-rule:nonzero;stroke:none;stroke-width:0.37795275;stroke-linecap:butt;stroke-linejoin:miter;stroke-miterlimit:10;stroke-dasharray:none;stroke-dashoffset:0;stroke-opacity:1;marker:none;color-rendering:auto;image-rendering:auto;shape-rendering:auto;text-rendering:auto;enable-background:accumulate"
       d="M 414.82227 469.48438 C 402.68953 469.48438 389.46424 469.83042 376.44922 470.34961 C 357.58619 471.10204 344.04188 475.44684 342.94922 484.94922 C 340.87641 502.97549 337.9375 536.87236 337.9375 584.10742 C 337.9375 602.19133 341.4806 615.05753 345.13477 627.63867 C 348.51638 639.28143 351.73176 651.01451 352.23633 665.5 L 352.23633 668.76953 L 414.82227 668.76953 L 477.4082 668.76953 L 477.4082 665.5 C 477.91277 651.01454 481.12815 639.28143 484.50977 627.63867 C 488.16393 615.05753 491.70703 602.19133 491.70703 584.10742 C 491.70703 536.87236 488.76812 502.97549 486.69531 484.94922 C 485.60265 475.44686 472.05834 471.10204 453.19531 470.34961 C 440.18028 469.83045 426.95501 469.48437 414.82227 469.48438 z "
       transform="scale(0.26458333)"
       id="path3932" />
    <path
       style="color:#000000;clip-rule:nonzero;display:inline;overflow:visible;visibility:visible;opacity:0.5;isolation:auto;mix-blend-mode:normal;color-interpolation:sRGB;color-interpolation-filters:linearRGB;solid-color:#000000;solid-opacity:1;fill:#0000ff;fill-opacity:1;fill-rule:nonzero;stroke:none;stroke-width:0.37795275;stroke-linecap:butt;stroke-linejoin:miter;stroke-miterlimit:10;stroke-dasharray:none;stroke-dashoffset:0;stroke-opacity:1;marker:none;color-rendering:auto;image-rendering:auto;shape-rendering:auto;text-rendering:auto;enable-background:accumulate"
       d="M 411.83984 482.70312 C 380.73467 482.54463 341.52833 497.54538 340.54492 510.56641 C 339.13799 529.19524 337.9375 553.92941 337.9375 584.10742 C 337.9375 602.19133 341.4806 615.05753 345.13477 627.63867 C 348.51638 639.28143 351.73176 651.01451 352.23633 665.5 L 352.23633 668.76953 L 414.82227 668.76953 L 477.4082 668.76953 L 477.4082 665.5 C 477.91277 651.01454 481.12815 639.28143 484.50977 627.63867 C 488.16393 615.05753 491.70703 602.19133 491.70703 584.10742 C 491.70703 553.9294 490.50654 529.19524 489.09961 510.56641 C 488.08448 497.12536 446.34157 481.57601 414.82227 482.76758 C 413.83729 482.73034 412.84324 482.70824 411.83984 482.70312 z "
       id="path3943"
       transform="scale(0.26458333)" />
    <circle
       style="color:#000000;clip-rule:nonzero;display:inline;overflow:visible;visibility:visible;opacity:0.5;isolation:auto;mix-blend-mode:normal;color-interpolation:sRGB;color-interpolation-filters:linearRGB;solid-color:#000000;solid-opacity:1;fill:#ff00ff;fill-opacity:1;fill-rule:nonzero;stroke:none;stroke-width:0.1;stroke-linecap:butt;stroke-linejoin:miter;stroke-miterlimit:10;stroke-dasharray:none;stroke-dashoffset:0;stroke-opacity:1;marker:none;color-rendering:auto;image-rendering:auto;shape-rendering:auto;text-rendering:auto;enable-background:accumulate"
       id="path3983"
       cx="109.75484"
       cy="110.62196"
       r="12.49408" />
    <image
       sodipodi:absref="/home/mf/Documents/grillo-phone/img/grilloPic-keyboard.jpg"
       xlink:href="img/grilloPic-keyboard.jpg"
       inkscape:transform-center-y="64.114255"
       inkscape:transform-center-x="0.75287584"
       transform="rotate(90)"
       width="149.63806"
       height="52.996819"
       preserveAspectRatio="none"
       style="stroke-width:2.26323867;image-rendering:optimizeQuality"
       id="image4032"
       x="84.455933"
       y="-66.517372" />
  </g>
</svg>
